<?xml version="1.0" encoding="UTF-8" standalone="no"?>
<!-- Created with Inkscape (http://www.inkscape.org/) -->

<svg
   xmlns:dc="http://purl.org/dc/elements/1.1/"
   xmlns:cc="http://creativecommons.org/ns#"
   xmlns:rdf="http://www.w3.org/1999/02/22-rdf-syntax-ns#"
   xmlns:svg="http://www.w3.org/2000/svg"
   xmlns="http://www.w3.org/2000/svg"
   xmlns:sodipodi="http://sodipodi.sourceforge.net/DTD/sodipodi-0.dtd"
   xmlns:inkscape="http://www.inkscape.org/namespaces/inkscape"
   width="492"
   height="128"
   viewBox="0 0 492.00003 128"
   id="svg2"
   version="1.1"
   inkscape:version="0.91 r13725"
   sodipodi:docname="citringo_white.svg">
  <defs
     id="defs4" />
  <sodipodi:namedview
     id="base"
     pagecolor="#000000"
     bordercolor="#666666"
     borderopacity="1.0"
     inkscape:pageopacity="1"
     inkscape:pageshadow="2"
     inkscape:zoom="1.4142136"
     inkscape:cx="224.62843"
     inkscape:cy="56.952377"
     inkscape:document-units="px"
     inkscape:current-layer="layer4"
     showgrid="false"
     units="px"
     inkscape:window-width="1366"
     inkscape:window-height="715"
     inkscape:window-x="-8"
     inkscape:window-y="-8"
     inkscape:window-maximized="1" />
  <metadata
     id="metadata7">
    <rdf:RDF>
      <cc:Work
         rdf:about="">
        <dc:format>image/svg+xml</dc:format>
        <dc:type
           rdf:resource="http://purl.org/dc/dcmitype/StillImage" />
        <dc:title></dc:title>
      </cc:Work>
    </rdf:RDF>
  </metadata>
  <g
     inkscape:label="レイヤー 1"
     inkscape:groupmode="layer"
     id="layer1"
     transform="translate(0,-924.36221)" />
  <g
     inkscape:groupmode="layer"
     id="layer2"
     inkscape:label="レイヤー 2"
     style="opacity:1">
    <path
       style="fill:#ffffff;fill-opacity:1;fill-rule:evenodd;stroke:none;stroke-width:0.99517494px;stroke-linecap:butt;stroke-linejoin:miter;stroke-opacity:1;opacity:1"
       d="M 0 0 L 0 128 L 128 128 L 128 0 L 0 0 z M 97.621094 11.048828 L 97.621094 32.798828 L 49.121094 32.798828 L 49.121094 79.048828 L 97.484375 79.048828 L 97.572266 118.17383 L 73.246094 95.173828 L 49.871094 118.54883 L 27.621094 96.298828 L 27.652344 11.080078 L 97.621094 11.048828 z "
       id="rect3347"
       transform="translate(0,-3.8146975e-6)" />
  </g>
  <g
     inkscape:groupmode="layer"
     id="layer4"
     inkscape:label="レイヤー 4"
     style="opacity:1">
    <path
       id="rect4557"
       style="opacity:1;fill:#ffffff;fill-opacity:1;stroke:none"
       d="m 139.89287,26.717673 8.66206,0 0,71.640981 -8.66206,0 z m 0.0259,-0.01072 55.68465,0 0,8.662057 -55.68465,0 z M 443.25,91.207094 l 45.75,0 0,7.625 -45.75,0 z m 40.375,-40.750018 8.1875,0 0,48.375018 -8.1875,0 z m -38.67807,-5.36535 46.84583,0 0,7.77817 -46.84583,0 z m -1.76776,0 8.48528,0 0,53.740068 -8.48528,0 z m -52.3259,44.370968 33.76435,0 0,7.9657 -33.76435,0 z m 0.17679,19.445396 35.53212,0 0,8.1318 -35.53212,0 z m 31.46625,-62.225364 8.83883,0 0,70.357164 -8.83883,0 z m -30.75916,-1.41425 39.59798,0 0,7.95496 -39.59798,0 z m -0.88388,0 8.30851,0 0,52.149118 -8.30851,0 z m -21.38998,1.41425 8.66206,0 0,51.088468 -8.66206,0 z m -35.35535,-1.591 44.0174,0 0,8.13172 -44.0174,0 z m 0,0.17675 8.66206,0 0,52.325918 -8.66206,0 z m -19.8688,-0.49334 8.625,0 0,52.499958 -8.625,0 z m 0.0259,-20.40052 8.3969,0 0,10.82758 -8.3969,0 z m -39.64001,20.58246 30.125,0 0,8.125 -30.125,0 z m -0.375,0 9,0 0,52.625018 -9,0 z m -43.8125,0.375 32.875,0 0,6.8125 -32.875,0 z m 6.5,44.062518 26.125,0 0,8.375 -26.125,0 z m -0.0625,-58.812518 8.375,0 0,67.125018 -8.375,0 z m -26.625,14.625 8.625,0 0,52.500018 -8.625,0 z m 0.0259,-20.40045 8.39689,0 0,10.82757 -8.39689,0 z m -70.35713,65.098068 55.68465,0 0,8.4853 -55.68465,0 z"
       inkscape:connector-curvature="0" />
  </g>
  <g
     inkscape:groupmode="layer"
     id="layer3"
     inkscape:label="レイヤー 3" />
</svg>
